<svg xmlns="http://www.w3.org/2000/svg" version="1.1" xmlns:xlink="http://www.w3.org/1999/xlink" xmlns:svgjs="http://svgjs.com/svgjs" width="1000" height="1000"><rect width="1000" height="1000" rx="250" ry="250" fill="#fcffff" fill-opacity="0%"></rect><g transform="matrix(1.5625,0,0,1.5625,100,260.9377743899822)"><svg xmlns="http://www.w3.org/2000/svg" version="1.1" xmlns:xlink="http://www.w3.org/1999/xlink" xmlns:svgjs="http://svgjs.com/svgjs" width="512" height="306"><svg width="512" height="306" viewBox="0 0 512 306" fill="none" xmlns="http://www.w3.org/2000/svg">
<path d="M448.118 248.402H495.136V172.773C484.032 175.327 465.683 179.517 448.128 183.366L448.118 248.402Z" fill="#00D2C1"></path>
<path d="M495.136 57.599H448.128V122.634C465.683 126.484 484.032 130.664 495.136 133.218V57.599Z" fill="#00D2C1"></path>
<path d="M62.217 56.681H134.423C140.193 56.681 144.875 51.989 144.875 46.22V10.892C144.875 5.11301 140.193 0.44101 134.423 0.44101H62.217C56.448 0.44101 51.775 5.11301 51.775 10.892V46.22C51.775 51.99 56.448 56.681 62.217 56.681Z" fill="black"></path>
<path d="M134.422 249.329H62.217C56.448 249.329 51.766 254.011 51.766 259.79V295.107C51.766 300.877 56.448 305.558 62.217 305.558H134.423C140.193 305.558 144.875 300.876 144.875 295.107V259.79C144.874 254.011 140.192 249.329 134.422 249.329Z" fill="black"></path>
<path d="M346.451 55.291H414.958C420.737 55.291 425.409 50.609 425.409 44.839V16.88C425.409 11.11 420.737 6.43802 414.958 6.43802H346.451C340.681 6.43802 335.999 11.11 335.999 16.88V44.839C335.999 50.609 340.681 55.291 346.451 55.291Z" fill="black"></path>
<path d="M414.958 250.711H346.451C340.681 250.711 335.999 255.383 335.999 261.153V289.112C335.999 294.882 340.681 299.573 346.451 299.573H414.958C420.737 299.573 425.409 294.881 425.409 289.112V261.153C425.409 255.383 420.737 250.711 414.958 250.711Z" fill="black"></path>
<path d="M57.147 72.343H0.009L0 233.647H57.147V72.343Z" fill="#00D2C1"></path>
<path d="M503.763 142.781C503.763 142.781 437.317 127.316 410.919 122.398C384.52 117.499 319.409 105.978 319.409 105.978C319.409 105.978 316.401 94.798 314.803 85.708C312.032 70.036 298.213 54.373 263.179 54.373C228.155 54.373 216.161 54.373 196.81 54.373C146.113 54.373 154.436 103.225 123.743 103.225C93.051 103.225 69.528 103.225 69.528 103.225V202.774C69.528 202.774 93.051 202.774 123.743 202.774C154.436 202.774 146.113 251.637 196.81 251.637C216.161 251.637 228.145 251.637 263.179 251.637C298.213 251.637 312.032 235.964 314.803 220.291C316.401 211.211 319.409 200.013 319.409 200.013C319.409 200.013 384.52 188.502 410.919 183.593C437.317 178.683 503.763 163.22 503.763 163.22C508.577 162.16 512 157.913 512 153.005C512 148.087 508.576 143.83 503.763 142.781ZM295.895 177.275C272.912 177.275 266.999 166.408 266.999 153.005C266.999 139.593 272.911 128.725 295.895 128.725C318.879 128.725 337.512 139.593 337.512 153.005C337.512 166.408 318.88 177.275 295.895 177.275Z" fill="#858381"></path>
<path d="M390.054 111.114V66.347H378.997V109.108C382.761 109.781 386.478 110.461 390.054 111.114Z" fill="black"></path>
<path d="M378.996 196.892V239.644H390.053V194.906C386.478 195.54 382.761 196.211 378.996 196.892Z" fill="black"></path>
<path d="M101.526 66.347H90.469V95.848H101.526V66.347Z" fill="black"></path>
<path d="M101.526 210.153H90.469V239.644H101.526V210.153Z" fill="black"></path>
</svg></svg></g></svg>